<svg xmlns="http://www.w3.org/2000/svg" xmlns:xlink="http://www.w3.org/1999/xlink" xmlns:lucid="lucid" width="1755" height="572"><g transform="translate(-1779 -197)" lucid:page-tab-id="0_0"><path d="M1820.27 481.98h240v61.1h-240z" fill="none"/><use xlink:href="#a" transform="matrix(1,0,0,1,1820.2654919008432,481.98070374574365) translate(33.05555555555557 35.44444444444444)"/><use xlink:href="#b" transform="matrix(1,0,0,1,1820.2654919008432,481.98070374574365) translate(130.46296296296296 35.44444444444444)"/><path d="M2290 313.38h240v61.1h-240z" fill="none"/><use xlink:href="#c" transform="matrix(1,0,0,1,2290,313.38365493757107) translate(53.425925925925924 35.44444444444444)"/><use xlink:href="#b" transform="matrix(1,0,0,1,2290,313.38365493757107) translate(110.09259259259258 35.44444444444444)"/><path d="M2350 360.1a6 6 0 0 1 6-6h188a6 6 0 0 1 6 6v110.2a6 6 0 0 1-6 6h-188a6 6 0 0 1-6-6z" stroke="#3a414a" fill="#fff"/><path d="M2450.5 355.45a.25.25 0 0 1 .25.25v119a.25.25 0 0 1-.25.25.25.25 0 0 1-.25-.25v-119a.25.25 0 0 1 .25-.25z" stroke="#3a414a" stroke-width=".5" fill="none"/><path d="M2350.25 382.54a.25.25 0 0 1 .25-.25h199a.25.25 0 0 1 .25.24.25.25 0 0 1-.25.25h-199a.25.25 0 0 1-.25-.26z" stroke="#3a414a" stroke-width=".5" fill="none"/><path d="M2270 360.1a6 6 0 0 1 6-6h228a6 6 0 0 1 6 6v24.66a6 6 0 0 1-6 6h-228a6 6 0 0 1-6-6z" stroke="#000" stroke-opacity="0" fill="#fff" fill-opacity="0"/><use xlink:href="#d" transform="matrix(1,0,0,1,2275,359.11010215664027) translate(94.6604938271605 19.46527777777778)"/><path d="M2383.86 360.1a6 6 0 0 1 6-6h228a6 6 0 0 1 6 6v24.66a6 6 0 0 1-6 6h-228a6 6 0 0 1-6-6z" stroke="#000" stroke-opacity="0" fill="#fff" fill-opacity="0"/><use xlink:href="#e" transform="matrix(1,0,0,1,2388.8607634706027,359.11010215664027) translate(89.75308641975309 19.46527777777778)"/><path d="M1860 532.36a6 6 0 0 1 6-6h188a6 6 0 0 1 6 6v110.18a6 6 0 0 1-6 6h-188a6 6 0 0 1-6-6z" stroke="#3a414a" fill="#fff"/><path d="M1960.5 527.7a.25.25 0 0 1 .25.25v119a.25.25 0 0 1-.25.25.25.25 0 0 1-.25-.25v-119a.25.25 0 0 1 .25-.25z" stroke="#3a414a" stroke-width=".5" fill="none"/><path d="M1860.25 557.83a.25.25 0 0 1 .25-.25h199a.25.25 0 0 1 .25.25.25.25 0 0 1-.25.25h-199a.25.25 0 0 1-.25-.25z" stroke="#3a414a" stroke-width=".5" fill="none"/><path d="M1880 533.28a6 6 0 0 1 6-6h228a6 6 0 0 1 6 6v24.65a6 6 0 0 1-6 6h-228a6 6 0 0 1-6-6z" stroke="#000" stroke-opacity="0" fill="#fff" fill-opacity="0"/><use xlink:href="#f" transform="matrix(1,0,0,1,1885,532.2797956867198) translate(60.12345679012346 19.46527777777778)"/><use xlink:href="#g" transform="matrix(1,0,0,1,1885,532.2797956867198) translate(78.64197530864197 19.46527777777778)"/><path d="M2660.35 495.94a6 6 0 0 1 6-6h33.46a4.58 4.58 0 0 0 4.6-4.58 1.76 1.76 0 0 1 3.05-1.18l9.42 10.47a6.67 6.67 0 0 1 0 8.92l-9.42 10.46a1.76 1.76 0 0 1-3.06-1.18 4.58 4.58 0 0 0-4.6-4.58h-33.45a6 6 0 0 1-6-6z" stroke="#3a414a" fill="#fff"/><path d="M2530.88 570.22a.25.25 0 0 1 .25.25v22.6a.25.25 0 0 1-.25.24.25.25 0 0 1-.25-.24v-22.6a.25.25 0 0 1 .25-.24z" stroke="#3a414a" stroke-width=".5" fill="none"/><path d="M2520.5 581.75a.25.25 0 0 1 .26-.25H2541a.25.25 0 0 1 .25.25.25.25 0 0 1-.25.25h-20.24a.25.25 0 0 1-.25-.25z" stroke="#3a414a" stroke-width=".5" fill="none"/><path d="M2550.88 360.1a6 6 0 0 1 6-6h88a6 6 0 0 1 6 6v110.2a6 6 0 0 1-6 6h-88a6 6 0 0 1-6-6z" stroke="#3a414a" fill="#fff"/><path d="M2551.13 382.54a.25.25 0 0 1 .25-.25h99a.25.25 0 0 1 .25.24.25.25 0 0 1-.25.25h-99a.25.25 0 0 1-.25-.26z" stroke="#3a414a" stroke-width=".5" fill="none"/><path d="M2480.88 360.1a6 6 0 0 1 6-6h228a6 6 0 0 1 6 6v24.66a6 6 0 0 1-6 6h-228a6 6 0 0 1-6-6z" stroke="#000" stroke-opacity="0" fill="#fff" fill-opacity="0"/><use xlink:href="#h" transform="matrix(1,0,0,1,2485.8827459504214,359.11010215664027) translate(69.38271604938272 19.46527777777778)"/><path d="M2550.88 526.67a6 6 0 0 1 6-6h88a6 6 0 0 1 6 6v110.18a6 6 0 0 1-6 6h-88a6 6 0 0 1-6-6z" stroke="#3a414a" fill="#fff"/><path d="M2550.5 547.35a.25.25 0 0 1 .26-.25h99a.25.25 0 0 1 .25.25.25.25 0 0 1-.24.25h-99a.25.25 0 0 1-.25-.25z" stroke="#3a414a" stroke-width=".5" fill="none"/><path d="M2480 524.63a6 6 0 0 1 6-6h228a6 6 0 0 1 6 6v24.66a6 6 0 0 1-6 6h-228a6 6 0 0 1-6-6z" stroke="#000" stroke-opacity="0" fill="#fff" fill-opacity="0"/><use xlink:href="#e" transform="matrix(1,0,0,1,2485,523.6345062429059) translate(89.75308641975309 19.46527777777778)"/><path d="M2480 399.22a6 6 0 0 1 6-6h228a6 6 0 0 1 6 6v51.33a6 6 0 0 1-6 6h-228a6 6 0 0 1-6-6z" stroke="#000" stroke-opacity="0" fill="#fff" fill-opacity="0"/><use xlink:href="#i" transform="matrix(1,0,0,1,2485,398.21793416572086) translate(108.82716049382717 21.15277777777778)"/><use xlink:href="#j" transform="matrix(1,0,0,1,2485,398.21793416572086) translate(108.82716049382717 47.81944444444444)"/><path d="M2480.88 563.33a6 6 0 0 1 6-6h228a6 6 0 0 1 6 6v51.33a6 6 0 0 1-6 6h-228a6 6 0 0 1-6-6z" stroke="#000" stroke-opacity="0" fill="#fff" fill-opacity="0"/><use xlink:href="#i" transform="matrix(1,0,0,1,2485.8827459504214,562.3246311010217) translate(108.82716049382717 21.15277777777778)"/><use xlink:href="#j" transform="matrix(1,0,0,1,2485.8827459504214,562.3246311010217) translate(108.82716049382717 47.81944444444444)"/><path d="M2120 532.36a6 6 0 0 1 6-6h127.74a6 6 0 0 1 6 6v105.97a6 6 0 0 1-6 6H2126a6 6 0 0 1-6-6z" stroke="#3a414a" fill="#fff"/><use xlink:href="#k" transform="matrix(1,0,0,1,2132,538.3620885357548) translate(32.75308641975309 38.34027777777778)"/><use xlink:href="#l" transform="matrix(1,0,0,1,2132,538.3620885357548) translate(27.814814814814817 65.00694444444446)"/><path d="M2070 585.8a6 6 0 0 1 6-6h16.45a3.81 3.81 0 0 0 3.82-3.8 1.46 1.46 0 0 1 2.55-.98l7.17 7.96a6.67 6.67 0 0 1 0 8.92l-7.18 7.97a1.46 1.46 0 0 1-2.56-.98 3.81 3.81 0 0 0-3.8-3.83H2076a6 6 0 0 1-6-6zM2269.74 582.67a6 6 0 0 1 6-6h33.45a4.58 4.58 0 0 0 4.57-4.58 1.76 1.76 0 0 1 3.07-1.2l9.4 10.47a6.67 6.67 0 0 1 0 8.92l-9.4 10.45a1.76 1.76 0 0 1-3.07-1.17 4.58 4.58 0 0 0-4.58-4.58h-33.46a6 6 0 0 1-6-6z" stroke="#3a414a" fill="#fff"/><path d="M2310.53 476.3h240v61.08h-240z" fill="none"/><use xlink:href="#a" transform="matrix(1,0,0,1,2310.5309838016865,476.28944381384787) translate(33.05555555555557 35.44444444444444)"/><use xlink:href="#b" transform="matrix(1,0,0,1,2310.5309838016865,476.28944381384787) translate(130.46296296296296 35.44444444444444)"/><path d="M2350.26 527.76a6 6 0 0 1 6-6h188a6 6 0 0 1 6 6v110.18a6 6 0 0 1-6 6h-188a6 6 0 0 1-6-6z" stroke="#3a414a" fill="#fff"/><path d="M2450.77 522a.25.25 0 0 1 .25.26v119a.25.25 0 0 1-.25.25.25.25 0 0 1-.25-.24v-119a.25.25 0 0 1 .25-.25z" stroke="#3a414a" stroke-width=".5" fill="none"/><path d="M2350.5 547.6a.25.25 0 0 1 .26-.24h199a.25.25 0 0 1 .25.25.25.25 0 0 1-.24.26h-199a.25.25 0 0 1-.25-.25z" stroke="#3a414a" stroke-width=".5" fill="none"/><path d="M2270.26 526.67a6 6 0 0 1 6-6h228a6 6 0 0 1 6 6v24.66a6 6 0 0 1-6 6h-228a6 6 0 0 1-6-6z" stroke="#000" stroke-opacity="0" fill="#fff" fill-opacity="0"/><use xlink:href="#d" transform="matrix(1,0,0,1,2275.2654919008432,525.6708286038595) translate(94.6604938271605 19.46527777777778)"/><path d="M2380 524.63a6 6 0 0 1 6-6h228a6 6 0 0 1 6 6v24.66a6 6 0 0 1-6 6h-228a6 6 0 0 1-6-6z" stroke="#000" stroke-opacity="0" fill="#fff" fill-opacity="0"/><use xlink:href="#h" transform="matrix(1,0,0,1,2385,523.6345062429059) translate(69.38271604938272 19.46527777777778)"/><path d="M1820.27 302h240v61.1h-240z" fill="none"/><use xlink:href="#c" transform="matrix(1,0,0,1,1820.2654919008432,302.0011350737795) translate(53.425925925925924 35.44444444444444)"/><use xlink:href="#b" transform="matrix(1,0,0,1,1820.2654919008432,302.0011350737795) translate(110.09259259259258 35.44444444444444)"/><path d="M1860 352.38a6 6 0 0 1 6-6h188a6 6 0 0 1 6 6v110.18a6 6 0 0 1-6 6h-188a6 6 0 0 1-6-6z" stroke="#3a414a" fill="#fff"/><path d="M1960.5 347.72a.25.25 0 0 1 .25.25v119a.25.25 0 0 1-.25.25.25.25 0 0 1-.25-.25v-119a.25.25 0 0 1 .25-.25z" stroke="#3a414a" stroke-width=".5" fill="none"/><path d="M1860.25 378.05a.25.25 0 0 1 .25-.25h199a.25.25 0 0 1 .25.25.25.25 0 0 1-.25.25h-199a.25.25 0 0 1-.25-.25z" stroke="#3a414a" stroke-width=".5" fill="none"/><path d="M1780 352.38a6 6 0 0 1 6-6h228a6 6 0 0 1 6 6v24.66a6 6 0 0 1-6 6h-228a6 6 0 0 1-6-6z" stroke="#000" stroke-opacity="0" fill="#fff" fill-opacity="0"/><use xlink:href="#d" transform="matrix(1,0,0,1,1785,351.38251986379106) translate(94.6604938271605 19.46527777777778)"/><path d="M1900 352.38a6 6 0 0 1 6-6h228a6 6 0 0 1 6 6v24.66a6 6 0 0 1-6 6h-228a6 6 0 0 1-6-6z" stroke="#000" stroke-opacity="0" fill="#fff" fill-opacity="0"/><use xlink:href="#e" transform="matrix(1,0,0,1,1905,351.3825198637913) translate(89.75308641975309 19.46527777777778)"/><path d="M2120 352.38a6 6 0 0 1 6-6h127.74a6 6 0 0 1 6 6v105.97a6 6 0 0 1-6 6H2126a6 6 0 0 1-6-6z" stroke="#3a414a" fill="#fff"/><use xlink:href="#m" transform="matrix(1,0,0,1,2132,358.3825198637909) translate(12.382716049382722 38.34027777777778)"/><use xlink:href="#l" transform="matrix(1,0,0,1,2132,358.3825198637909) translate(27.814814814814817 65.00694444444446)"/><path d="M2070 405.83a6 6 0 0 1 6-6h16.45a3.81 3.81 0 0 0 3.82-3.8 1.46 1.46 0 0 1 2.55-1L2106 403a6.67 6.67 0 0 1 0 8.92l-7.18 7.97a1.46 1.46 0 0 1-2.56-1 3.81 3.81 0 0 0-3.8-3.8H2076a6 6 0 0 1-6-6zM2269.74 402.7a6 6 0 0 1 6-6h33.45a4.58 4.58 0 0 0 4.57-4.6 1.76 1.76 0 0 1 3.07-1.17l9.4 10.46a6.67 6.67 0 0 1 0 8.9l-9.4 10.47a1.76 1.76 0 0 1-3.07-1.17 4.58 4.58 0 0 0-4.58-4.58h-33.46a6 6 0 0 1-6-6zM3080 451.75a6 6 0 0 1 6-6h148a6 6 0 0 1 6 6v108a6 6 0 0 1-6 6h-148a6 6 0 0 1-6-6z" stroke="#3a414a" fill="#fff"/><use xlink:href="#n" transform="matrix(1,0,0,1,3092,457.7525539160045) translate(38.8641975308642 26.77777777777778)"/><use xlink:href="#o" transform="matrix(1,0,0,1,3092,457.7525539160045) translate(16.85802469135802 53.44444444444445)"/><use xlink:href="#l" transform="matrix(1,0,0,1,3092,457.7525539160045) translate(37.81481481481482 80.11111111111111)"/><path d="M3300 451.75a6 6 0 0 1 6-6h148a6 6 0 0 1 6 6v108a6 6 0 0 1-6 6h-148a6 6 0 0 1-6-6z" stroke="#3a414a" fill="#fff"/><use xlink:href="#p" transform="matrix(1,0,0,1,3311.9999999999995,457.7525539160045) translate(14.419753086419746 26.77777777777778)"/><use xlink:href="#q" transform="matrix(1,0,0,1,3311.9999999999995,457.7525539160045) translate(67.32098765432099 26.77777777777778)"/><use xlink:href="#r" transform="matrix(1,0,0,1,3311.9999999999995,457.7525539160045) translate(22.475308641975303 53.44444444444445)"/><use xlink:href="#s" transform="matrix(1,0,0,1,3311.9999999999995,457.7525539160045) translate(41.48765432098766 80.11111111111111)"/><path d="M3240 501.53a6 6 0 0 1 6-6h30.5a5.1 5.1 0 0 0 5.1-5.1 1.96 1.96 0 0 1 3.42-1.32l10.97 12.2a6.67 6.67 0 0 1 0 8.9L3285 522.4a1.96 1.96 0 0 1-3.4-1.32 5.1 5.1 0 0 0-5.13-5.1H3246a6 6 0 0 1-6-6zM3000.53 515.82a6 6 0 0 1 6-6h30.5a5.1 5.1 0 0 0 5.1-5.1 1.96 1.96 0 0 1 3.42-1.32l10.97 12.18a6.67 6.67 0 0 1 0 8.92l-10.97 12.18a1.96 1.96 0 0 1-3.4-1.3 5.1 5.1 0 0 0-5.12-5.12h-30.5a6 6 0 0 1-6-6z" stroke="#3a414a" fill="#fff"/><path d="M2660.26 346.38h240v60h-240z" fill="none"/><use xlink:href="#t" transform="matrix(1,0,0,1,2660.2654919008432,346.38251986379083) translate(72.5 34.44444444444444)"/><use xlink:href="#u" transform="matrix(1,0,0,1,2660.2654919008432,346.38251986379083) translate(155.15432098765433 34.44444444444444)"/><path d="M2740.26 413.47a6 6 0 0 1 6-6h248a6 6 0 0 1 6 6v171.27a6 6 0 0 1-6 6h-248a6 6 0 0 1-6-6z" stroke="#3a414a" fill="#fff"/><path d="M2820.77 409.36a.25.25 0 0 1 .25.25v179a.25.25 0 0 1-.25.26.25.25 0 0 1-.25-.25v-179a.25.25 0 0 1 .25-.24z" stroke="#3a414a" stroke-width=".5" fill="none"/><path d="M2740.5 445.25a.25.25 0 0 1 .26-.25h199a.25.25 0 0 1 .25.25.25.25 0 0 1-.24.25h-199a.25.25 0 0 1-.25-.25z" stroke="#3a414a" stroke-width=".5" fill="none"/><path d="M2660.26 413.47a6 6 0 0 1 6-6h228a6 6 0 0 1 6 6v43.92a6 6 0 0 1-6 6h-228a6 6 0 0 1-6-6z" stroke="#000" stroke-opacity="0" fill="#fff" fill-opacity="0"/><use xlink:href="#d" transform="matrix(1,0,0,1,2665.2654919008437,412.47219069239486) translate(94.6604938271605 26.40277777777778)"/><path d="M2740.26 413.47a6 6 0 0 1 6-6h228a6 6 0 0 1 6 6v43.92a6 6 0 0 1-6 6h-228a6 6 0 0 1-6-6z" stroke="#000" stroke-opacity="0" fill="#fff" fill-opacity="0"/><g><use xlink:href="#e" transform="matrix(1,0,0,1,2745.2654919008437,412.47219069239486) translate(89.75308641975309 26.40277777777778)"/></g><path d="M2940.5 445.25a.25.25 0 0 1 .26-.25h59a.25.25 0 0 1 .25.25.25.25 0 0 1-.24.25h-59a.25.25 0 0 1-.25-.25z" stroke="#3a414a" stroke-width=".5" fill="none"/><g><path d="M2900.77 409.36a.25.25 0 0 1 .25.25v179a.25.25 0 0 1-.25.26.25.25 0 0 1-.25-.25v-179a.25.25 0 0 1 .25-.24z" stroke="#3a414a" stroke-width=".5" fill="none"/></g><path d="M2831.76 413.47a6 6 0 0 1 6-6h228a6 6 0 0 1 6 6v43.92a6 6 0 0 1-6 6h-228a6 6 0 0 1-6-6z" stroke="#000" stroke-opacity="0" fill="#fff" fill-opacity="0"/><g><use xlink:href="#h" transform="matrix(1,0,0,1,2836.7654919008437,412.47219069239486) translate(69.38271604938272 26.40277777777778)"/></g><path d="M2740.26 460.4a6 6 0 0 1 6-6h228a6 6 0 0 1 6 6v51.32a6 6 0 0 1-6 6h-228a6 6 0 0 1-6-6z" stroke="#000" stroke-opacity="0" fill="#fff" fill-opacity="0"/><g><use xlink:href="#i" transform="matrix(1,0,0,1,2745.2654919008437,459.38743851683637) translate(108.82716049382717 21.15277777777778)"/><use xlink:href="#j" transform="matrix(1,0,0,1,2745.2654919008437,459.38743851683637) translate(108.82716049382717 47.81944444444444)"/></g><path d="M2740.26 525.96a6 6 0 0 1 6-6h228a6 6 0 0 1 6 6v51.34a6 6 0 0 1-6 6h-228a6 6 0 0 1-6-6z" stroke="#000" stroke-opacity="0" fill="#fff" fill-opacity="0"/><g><use xlink:href="#i" transform="matrix(1,0,0,1,2745.2654919008437,524.9644343548993) translate(108.82716049382717 21.15277777777778)"/><use xlink:href="#j" transform="matrix(1,0,0,1,2745.2654919008437,524.9644343548993) translate(108.82716049382717 47.81944444444444)"/></g><path d="M2820.26 462.63a6 6 0 0 1 6-6h228a6 6 0 0 1 6 6v51.33a6 6 0 0 1-6 6h-228a6 6 0 0 1-6-6z" stroke="#000" stroke-opacity="0" fill="#fff" fill-opacity="0"/><g><use xlink:href="#i" transform="matrix(1,0,0,1,2825.2654919008432,461.631101021566) translate(108.82716049382717 21.15277777777778)"/><use xlink:href="#v" transform="matrix(1,0,0,1,2825.2654919008432,461.631101021566) translate(108.82716049382717 47.81944444444444)"/></g><path d="M2820.26 525.72a6 6 0 0 1 6-6h228a6 6 0 0 1 6 6v51.34a6 6 0 0 1-6 6h-228a6 6 0 0 1-6-6z" stroke="#000" stroke-opacity="0" fill="#fff" fill-opacity="0"/><g><use xlink:href="#w" transform="matrix(1,0,0,1,2825.2654919008432,524.7241770715094) translate(108.82716049382717 21.15277777777778)"/><use xlink:href="#j" transform="matrix(1,0,0,1,2825.2654919008432,524.7241770715094) translate(108.82716049382717 47.81944444444444)"/></g><defs><path fill="#3a414a" d="M185-189c-5-48-123-54-124 2 14 75 158 14 163 119 3 78-121 87-175 55-17-10-28-26-33-46l33-7c5 56 141 63 141-1 0-78-155-14-162-118-5-82 145-84 179-34 5 7 8 16 11 25" id="x"/><path fill="#3a414a" d="M141-36C126-15 110 5 73 4 37 3 15-17 15-53c-1-64 63-63 125-63 3-35-9-54-41-54-24 1-41 7-42 31l-33-3c5-37 33-52 76-52 45 0 72 20 72 64v82c-1 20 7 32 28 27v20c-31 9-61-2-59-35zM48-53c0 20 12 33 32 33 41-3 63-29 60-74-43 2-92-5-92 41" id="y"/><path fill="#3a414a" d="M114-163C36-179 61-72 57 0H25l-1-190h30c1 12-1 29 2 39 6-27 23-49 58-41v29" id="z"/><path fill="#3a414a" d="M96-169c-40 0-48 33-48 73s9 75 48 75c24 0 41-14 43-38l32 2c-6 37-31 61-74 61-59 0-76-41-82-99-10-93 101-131 147-64 4 7 5 14 7 22l-32 3c-4-21-16-35-41-35" id="A"/><path fill="#3a414a" d="M135-143c-3-34-86-38-87 0 15 53 115 12 119 90S17 21 10-45l28-5c4 36 97 45 98 0-10-56-113-15-118-90-4-57 82-63 122-42 12 7 21 19 24 35" id="B"/><path fill="#3a414a" d="M59-47c-2 24 18 29 38 22v24C64 9 27 4 27-40v-127H5v-23h24l9-43h21v43h35v23H59v120" id="C"/><path fill="#3a414a" d="M24-231v-30h32v30H24zM24 0v-190h32V0H24" id="D"/><g id="a"><use transform="matrix(0.06172839506172839,0,0,0.06172839506172839,0,0)" xlink:href="#x"/><use transform="matrix(0.06172839506172839,0,0,0.06172839506172839,14.814814814814813,0)" xlink:href="#y"/><use transform="matrix(0.06172839506172839,0,0,0.06172839506172839,27.160493827160494,0)" xlink:href="#z"/><use transform="matrix(0.06172839506172839,0,0,0.06172839506172839,34.50617283950617,0)" xlink:href="#A"/><use transform="matrix(0.06172839506172839,0,0,0.06172839506172839,45.61728395061728,0)" xlink:href="#y"/><use transform="matrix(0.06172839506172839,0,0,0.06172839506172839,57.962962962962955,0)" xlink:href="#B"/><use transform="matrix(0.06172839506172839,0,0,0.06172839506172839,69.07407407407406,0)" xlink:href="#C"/><use transform="matrix(0.06172839506172839,0,0,0.06172839506172839,75.2469135802469,0)" xlink:href="#D"/><use transform="matrix(0.06172839506172839,0,0,0.06172839506172839,80.12345679012344,0)" xlink:href="#A"/></g><path fill="#3a414a" d="M30-248c118-7 216 8 213 122C240-48 200 0 122 0H30v-248zM63-27c89 8 146-16 146-99s-60-101-146-95v194" id="E"/><path fill="#3a414a" d="M100-194c63 0 86 42 84 106H49c0 40 14 67 53 68 26 1 43-12 49-29l28 8c-11 28-37 45-77 45C44 4 14-33 15-96c1-61 26-98 85-98zm52 81c6-60-76-77-97-28-3 7-6 17-6 28h103" id="F"/><g id="b"><use transform="matrix(0.06172839506172839,0,0,0.06172839506172839,0,0)" xlink:href="#E"/><use transform="matrix(0.06172839506172839,0,0,0.06172839506172839,15.987654320987653,0)" xlink:href="#y"/><use transform="matrix(0.06172839506172839,0,0,0.06172839506172839,28.333333333333332,0)" xlink:href="#C"/><use transform="matrix(0.06172839506172839,0,0,0.06172839506172839,34.50617283950617,0)" xlink:href="#y"/><use transform="matrix(0.06172839506172839,0,0,0.06172839506172839,46.85185185185185,0)" xlink:href="#B"/><use transform="matrix(0.06172839506172839,0,0,0.06172839506172839,57.96296296296296,0)" xlink:href="#F"/><use transform="matrix(0.06172839506172839,0,0,0.06172839506172839,70.30864197530865,0)" xlink:href="#C"/></g><path fill="#3a414a" d="M127-220V0H93v-220H8v-28h204v28h-85" id="G"/><path fill="#3a414a" d="M100-194c62-1 85 37 85 99 1 63-27 99-86 99S16-35 15-95c0-66 28-99 85-99zM99-20c44 1 53-31 53-75 0-43-8-75-51-75s-53 32-53 75 10 74 51 75" id="H"/><path fill="#3a414a" d="M141 0L90-78 38 0H4l68-98-65-92h35l48 74 47-74h35l-64 92 68 98h-35" id="I"/><g id="c"><use transform="matrix(0.06172839506172839,0,0,0.06172839506172839,0,0)" xlink:href="#G"/><use transform="matrix(0.06172839506172839,0,0,0.06172839506172839,11.049382716049381,0)" xlink:href="#H"/><use transform="matrix(0.06172839506172839,0,0,0.06172839506172839,23.39506172839506,0)" xlink:href="#I"/><use transform="matrix(0.06172839506172839,0,0,0.06172839506172839,34.50617283950617,0)" xlink:href="#D"/><use transform="matrix(0.06172839506172839,0,0,0.06172839506172839,39.382716049382715,0)" xlink:href="#A"/></g><g id="d"><use transform="matrix(0.06172839506172839,0,0,0.06172839506172839,0,0)" xlink:href="#G"/><use transform="matrix(0.06172839506172839,0,0,0.06172839506172839,11.049382716049381,0)" xlink:href="#F"/><use transform="matrix(0.06172839506172839,0,0,0.06172839506172839,23.39506172839506,0)" xlink:href="#I"/><use transform="matrix(0.06172839506172839,0,0,0.06172839506172839,34.50617283950617,0)" xlink:href="#C"/></g><g id="e"><use transform="matrix(0.06172839506172839,0,0,0.06172839506172839,0,0)" xlink:href="#G"/><use transform="matrix(0.06172839506172839,0,0,0.06172839506172839,11.049382716049381,0)" xlink:href="#H"/><use transform="matrix(0.06172839506172839,0,0,0.06172839506172839,23.39506172839506,0)" xlink:href="#I"/><use transform="matrix(0.06172839506172839,0,0,0.06172839506172839,34.50617283950617,0)" xlink:href="#D"/><use transform="matrix(0.06172839506172839,0,0,0.06172839506172839,39.382716049382715,0)" xlink:href="#A"/></g><g id="g"><use transform="matrix(0.06172839506172839,0,0,0.06172839506172839,0,0)" xlink:href="#x"/><use transform="matrix(0.06172839506172839,0,0,0.06172839506172839,14.814814814814813,0)" xlink:href="#y"/><use transform="matrix(0.06172839506172839,0,0,0.06172839506172839,27.160493827160494,0)" xlink:href="#z"/><use transform="matrix(0.06172839506172839,0,0,0.06172839506172839,34.50617283950617,0)" xlink:href="#A"/><use transform="matrix(0.06172839506172839,0,0,0.06172839506172839,45.61728395061728,0)" xlink:href="#y"/><use transform="matrix(0.06172839506172839,0,0,0.06172839506172839,57.962962962962955,0)" xlink:href="#B"/><use transform="matrix(0.06172839506172839,0,0,0.06172839506172839,69.07407407407406,0)" xlink:href="#C"/><use transform="matrix(0.06172839506172839,0,0,0.06172839506172839,75.2469135802469,0)" xlink:href="#D"/><use transform="matrix(0.06172839506172839,0,0,0.06172839506172839,80.12345679012344,0)" xlink:href="#A"/></g><g id="h"><use transform="matrix(0.06172839506172839,0,0,0.06172839506172839,0,0)" xlink:href="#x"/><use transform="matrix(0.06172839506172839,0,0,0.06172839506172839,14.814814814814813,0)" xlink:href="#y"/><use transform="matrix(0.06172839506172839,0,0,0.06172839506172839,27.160493827160494,0)" xlink:href="#z"/><use transform="matrix(0.06172839506172839,0,0,0.06172839506172839,34.50617283950617,0)" xlink:href="#A"/><use transform="matrix(0.06172839506172839,0,0,0.06172839506172839,45.61728395061728,0)" xlink:href="#y"/><use transform="matrix(0.06172839506172839,0,0,0.06172839506172839,57.962962962962955,0)" xlink:href="#B"/><use transform="matrix(0.06172839506172839,0,0,0.06172839506172839,69.07407407407406,0)" xlink:href="#C"/><use transform="matrix(0.06172839506172839,0,0,0.06172839506172839,75.2469135802469,0)" xlink:href="#D"/><use transform="matrix(0.06172839506172839,0,0,0.06172839506172839,80.12345679012344,0)" xlink:href="#A"/></g><path fill="#3a414a" d="M101-251c68 0 85 55 85 127S166 4 100 4C33 4 14-52 14-124c0-73 17-127 87-127zm-1 229c47 0 54-49 54-102s-4-102-53-102c-51 0-55 48-55 102 0 53 5 102 54 102" id="J"/><use transform="matrix(0.06172839506172839,0,0,0.06172839506172839,0,0)" xlink:href="#J" id="i"/><path fill="#3a414a" d="M27 0v-27h64v-190l-56 39v-29l58-41h29v221h61V0H27" id="K"/><use transform="matrix(0.06172839506172839,0,0,0.06172839506172839,0,0)" xlink:href="#K" id="j"/><g id="k"><use transform="matrix(0.06172839506172839,0,0,0.06172839506172839,0,0)" xlink:href="#G"/><use transform="matrix(0.06172839506172839,0,0,0.06172839506172839,11.049382716049381,0)" xlink:href="#H"/><use transform="matrix(0.06172839506172839,0,0,0.06172839506172839,23.39506172839506,0)" xlink:href="#I"/><use transform="matrix(0.06172839506172839,0,0,0.06172839506172839,34.50617283950617,0)" xlink:href="#D"/><use transform="matrix(0.06172839506172839,0,0,0.06172839506172839,39.382716049382715,0)" xlink:href="#A"/></g><path fill="#3a414a" d="M240 0l2-218c-23 76-54 145-80 218h-23L58-218 59 0H30v-248h44l77 211c21-75 51-140 76-211h43V0h-30" id="L"/><path fill="#3a414a" d="M85-194c31 0 48 13 60 33l-1-100h32l1 261h-30c-2-10 0-23-3-31C134-8 116 4 85 4 32 4 16-35 15-94c0-66 23-100 70-100zm9 24c-40 0-46 34-46 75 0 40 6 74 45 74 42 0 51-32 51-76 0-42-9-74-50-73" id="M"/><path fill="#3a414a" d="M24 0v-261h32V0H24" id="N"/><g id="l"><use transform="matrix(0.06172839506172839,0,0,0.06172839506172839,0,0)" xlink:href="#L"/><use transform="matrix(0.06172839506172839,0,0,0.06172839506172839,18.456790123456788,0)" xlink:href="#H"/><use transform="matrix(0.06172839506172839,0,0,0.06172839506172839,30.80246913580247,0)" xlink:href="#M"/><use transform="matrix(0.06172839506172839,0,0,0.06172839506172839,43.148148148148145,0)" xlink:href="#F"/><use transform="matrix(0.06172839506172839,0,0,0.06172839506172839,55.49382716049382,0)" xlink:href="#N"/></g><g id="m"><use transform="matrix(0.06172839506172839,0,0,0.06172839506172839,0,0)" xlink:href="#x"/><use transform="matrix(0.06172839506172839,0,0,0.06172839506172839,14.814814814814813,0)" xlink:href="#y"/><use transform="matrix(0.06172839506172839,0,0,0.06172839506172839,27.160493827160494,0)" xlink:href="#z"/><use transform="matrix(0.06172839506172839,0,0,0.06172839506172839,34.50617283950617,0)" xlink:href="#A"/><use transform="matrix(0.06172839506172839,0,0,0.06172839506172839,45.61728395061728,0)" xlink:href="#y"/><use transform="matrix(0.06172839506172839,0,0,0.06172839506172839,57.962962962962955,0)" xlink:href="#B"/><use transform="matrix(0.06172839506172839,0,0,0.06172839506172839,69.07407407407406,0)" xlink:href="#C"/><use transform="matrix(0.06172839506172839,0,0,0.06172839506172839,75.2469135802469,0)" xlink:href="#D"/><use transform="matrix(0.06172839506172839,0,0,0.06172839506172839,80.12345679012344,0)" xlink:href="#A"/></g><path fill="#3a414a" d="M160-131c35 5 61 23 61 61C221 17 115-2 30 0v-248c76 3 177-17 177 60 0 33-19 50-47 57zm-97-11c50-1 110 9 110-42 0-47-63-36-110-37v79zm0 115c55-2 124 14 124-45 0-56-70-42-124-44v89" id="O"/><path fill="#3a414a" d="M30 0v-248h187v28H63v79h144v27H63v87h162V0H30" id="P"/><path fill="#3a414a" d="M233-177c-1 41-23 64-60 70L243 0h-38l-65-103H63V0H30v-248c88 3 205-21 203 71zM63-129c60-2 137 13 137-47 0-61-80-42-137-45v92" id="Q"/><g id="n"><use transform="matrix(0.06172839506172839,0,0,0.06172839506172839,0,0)" xlink:href="#O"/><use transform="matrix(0.06172839506172839,0,0,0.06172839506172839,14.814814814814813,0)" xlink:href="#P"/><use transform="matrix(0.06172839506172839,0,0,0.06172839506172839,29.629629629629626,0)" xlink:href="#Q"/><use transform="matrix(0.06172839506172839,0,0,0.06172839506172839,45.18518518518518,0)" xlink:href="#G"/></g><path fill="#3a414a" d="M30-248c87 1 191-15 191 75 0 78-77 80-158 76V0H30v-248zm33 125c57 0 124 11 124-50 0-59-68-47-124-48v98" id="R"/><path fill="#3a414a" d="M117-194c89-4 53 116 60 194h-32v-121c0-31-8-49-39-48C34-167 62-67 57 0H25l-1-190h30c1 10-1 24 2 32 11-22 29-35 61-36" id="S"/><g id="o"><use transform="matrix(0.06172839506172839,0,0,0.06172839506172839,0,0)" xlink:href="#R"/><use transform="matrix(0.06172839506172839,0,0,0.06172839506172839,14.814814814814813,0)" xlink:href="#z"/><use transform="matrix(0.06172839506172839,0,0,0.06172839506172839,22.160493827160494,0)" xlink:href="#F"/><use transform="matrix(0.06172839506172839,0,0,0.06172839506172839,34.50617283950617,0)" xlink:href="#C"/><use transform="matrix(0.06172839506172839,0,0,0.06172839506172839,40.67901234567901,0)" xlink:href="#z"/><use transform="matrix(0.06172839506172839,0,0,0.06172839506172839,48.02469135802469,0)" xlink:href="#y"/><use transform="matrix(0.06172839506172839,0,0,0.06172839506172839,60.37037037037037,0)" xlink:href="#D"/><use transform="matrix(0.06172839506172839,0,0,0.06172839506172839,65.24691358024691,0)" xlink:href="#S"/><use transform="matrix(0.06172839506172839,0,0,0.06172839506172839,77.5925925925926,0)" xlink:href="#F"/><use transform="matrix(0.06172839506172839,0,0,0.06172839506172839,89.93827160493828,0)" xlink:href="#M"/></g><path fill="#3a414a" d="M84 4C-5 8 30-112 23-190h32v120c0 31 7 50 39 49 72-2 45-101 50-169h31l1 190h-30c-1-10 1-25-2-33-11 22-28 36-60 37" id="T"/><g id="p"><use transform="matrix(0.06172839506172839,0,0,0.06172839506172839,0,0)" xlink:href="#L"/><use transform="matrix(0.06172839506172839,0,0,0.06172839506172839,18.456790123456788,0)" xlink:href="#T"/><use transform="matrix(0.06172839506172839,0,0,0.06172839506172839,30.80246913580247,0)" xlink:href="#N"/><use transform="matrix(0.06172839506172839,0,0,0.06172839506172839,35.67901234567901,0)" xlink:href="#C"/><use transform="matrix(0.06172839506172839,0,0,0.06172839506172839,41.851851851851855,0)" xlink:href="#D"/></g><path fill="#3a414a" d="M30 0v-248h33v221h125V0H30" id="U"/><path fill="#3a414a" d="M115-194c53 0 69 39 70 98 0 66-23 100-70 100C84 3 66-7 56-30L54 0H23l1-261h32v101c10-23 28-34 59-34zm-8 174c40 0 45-34 45-75 0-40-5-75-45-74-42 0-51 32-51 76 0 43 10 73 51 73" id="V"/><g id="q"><use transform="matrix(0.06172839506172839,0,0,0.06172839506172839,0,0)" xlink:href="#U"/><use transform="matrix(0.06172839506172839,0,0,0.06172839506172839,12.345679012345679,0)" xlink:href="#y"/><use transform="matrix(0.06172839506172839,0,0,0.06172839506172839,24.691358024691358,0)" xlink:href="#V"/><use transform="matrix(0.06172839506172839,0,0,0.06172839506172839,37.03703703703704,0)" xlink:href="#F"/><use transform="matrix(0.06172839506172839,0,0,0.06172839506172839,49.382716049382715,0)" xlink:href="#N"/></g><path fill="#3a414a" d="M212-179c-10-28-35-45-73-45-59 0-87 40-87 99 0 60 29 101 89 101 43 0 62-24 78-52l27 14C228-24 195 4 139 4 59 4 22-46 18-125c-6-104 99-153 187-111 19 9 31 26 39 46" id="W"/><path fill="#3a414a" d="M101-234c-31-9-42 10-38 44h38v23H63V0H32v-167H5v-23h27c-7-52 17-82 69-68v24" id="X"/><g id="r"><use transform="matrix(0.06172839506172839,0,0,0.06172839506172839,0,0)" xlink:href="#W"/><use transform="matrix(0.06172839506172839,0,0,0.06172839506172839,15.987654320987653,0)" xlink:href="#N"/><use transform="matrix(0.06172839506172839,0,0,0.06172839506172839,20.864197530864196,0)" xlink:href="#y"/><use transform="matrix(0.06172839506172839,0,0,0.06172839506172839,33.20987654320987,0)" xlink:href="#B"/><use transform="matrix(0.06172839506172839,0,0,0.06172839506172839,44.32098765432099,0)" xlink:href="#B"/><use transform="matrix(0.06172839506172839,0,0,0.06172839506172839,55.4320987654321,0)" xlink:href="#D"/><use transform="matrix(0.06172839506172839,0,0,0.06172839506172839,60.308641975308646,0)" xlink:href="#X"/><use transform="matrix(0.06172839506172839,0,0,0.06172839506172839,66.48148148148148,0)" xlink:href="#D"/><use transform="matrix(0.06172839506172839,0,0,0.06172839506172839,71.35802469135803,0)" xlink:href="#F"/><use transform="matrix(0.06172839506172839,0,0,0.06172839506172839,83.70370370370371,0)" xlink:href="#z"/></g><path fill="#3a414a" d="M197 0v-115H63V0H30v-248h33v105h134v-105h34V0h-34" id="Y"/><g id="s"><use transform="matrix(0.06172839506172839,0,0,0.06172839506172839,0,0)" xlink:href="#Y"/><use transform="matrix(0.06172839506172839,0,0,0.06172839506172839,15.987654320987653,0)" xlink:href="#F"/><use transform="matrix(0.06172839506172839,0,0,0.06172839506172839,28.333333333333332,0)" xlink:href="#y"/><use transform="matrix(0.06172839506172839,0,0,0.06172839506172839,40.67901234567901,0)" xlink:href="#M"/></g><g id="t"><use transform="matrix(0.06172839506172839,0,0,0.06172839506172839,0,0)" xlink:href="#E"/><use transform="matrix(0.06172839506172839,0,0,0.06172839506172839,15.987654320987653,0)" xlink:href="#y"/><use transform="matrix(0.06172839506172839,0,0,0.06172839506172839,28.333333333333332,0)" xlink:href="#C"/><use transform="matrix(0.06172839506172839,0,0,0.06172839506172839,34.50617283950617,0)" xlink:href="#y"/><use transform="matrix(0.06172839506172839,0,0,0.06172839506172839,46.85185185185185,0)" xlink:href="#B"/><use transform="matrix(0.06172839506172839,0,0,0.06172839506172839,57.96296296296296,0)" xlink:href="#F"/><use transform="matrix(0.06172839506172839,0,0,0.06172839506172839,70.30864197530865,0)" xlink:href="#C"/></g><path fill="#3a414a" d="M101-251c82-7 93 87 43 132L82-64C71-53 59-42 53-27h129V0H18c2-99 128-94 128-182 0-28-16-43-45-43s-46 15-49 41l-32-3c6-41 34-60 81-64" id="Z"/><use transform="matrix(0.06172839506172839,0,0,0.06172839506172839,0,0)" xlink:href="#Z" id="u"/><use transform="matrix(0.06172839506172839,0,0,0.06172839506172839,0,0)" xlink:href="#J" id="v"/><use transform="matrix(0.06172839506172839,0,0,0.06172839506172839,0,0)" xlink:href="#K" id="w"/></defs></g></svg>